<svg width="512" height="512" viewBox="0 0 512 512" fill="none" xmlns="http://www.w3.org/2000/svg">
<path d="M386 53C386 58.5234 381.523 63 376 63C370.477 63 366 58.5234 366 53C366 47.4766 370.477 43 376 43C381.523 43 386 47.4766 386 53Z" fill="white"/>
<path d="M256 106C162.262 106 86 182.262 86 276C86 370.645 162.879 446 256 446C349.324 446 426 370.512 426 276C426 182.262 349.738 106 256 106ZM225.207 422.82C225.715 420.613 225.988 418.328 226 416V376.164C225.977 361.582 231.059 359.32 236.875 350.438C238.742 347.586 239.027 343.98 237.637 340.867C236.242 337.758 233.359 335.57 229.988 335.07C190.32 329.148 174.75 308.699 168.672 292.59C160.578 271.129 164.863 244.367 179.09 227.496C181.254 224.953 183.191 220.383 181.637 215.809C178.602 206.641 179.074 191.996 180.965 186.332C189.582 187.594 197.633 192.477 206.805 198.043C212.113 201.27 215.887 204.246 222.309 202.52C233.531 199.477 244.867 197.859 256 197.711C267.137 197.855 278.473 199.477 289.711 202.523C296.094 204.246 299.992 201.203 305.195 198.043C314.371 192.477 322.422 187.59 331.039 186.332C332.93 191.992 333.402 206.633 330.395 215.727C328.813 220.379 330.746 224.953 332.91 227.496C347.141 244.363 351.426 271.129 343.328 292.59C337.254 308.699 321.684 329.148 282.016 335.066C278.645 335.57 275.762 337.758 274.367 340.867C272.973 343.98 273.258 347.586 275.125 350.438C280.93 359.301 286.027 361.562 286.004 376.18V416.055C286.016 418.359 286.285 420.629 286.789 422.82C276.715 424.922 266.406 426 256 426C245.594 426 235.281 424.922 225.207 422.82ZM306.109 417.418C306.047 416.953 306.004 416.484 306 416V376.195C306.02 364.719 303.496 357.254 300.371 351.656C330.719 343.453 352.348 325.348 362.039 299.648C372.277 272.504 367.633 240.055 350.59 217.59C353.695 203.922 353.605 182.336 346.164 172.52C342.836 168.125 338.188 165.848 333.047 166.07C317.41 166.793 305.359 174.598 292.234 182.512C280.223 179.473 268.09 177.859 256.121 177.711C256.039 177.707 255.961 177.707 255.879 177.711C243.906 177.855 231.766 179.473 219.766 182.512C206.742 174.66 194.656 166.797 178.949 166.07C173.832 165.836 169.168 168.125 165.836 172.52C158.406 182.32 158.305 203.855 161.414 217.582C144.371 240.047 139.723 272.504 149.961 299.648C159.652 325.348 181.281 343.453 211.629 351.652C209.16 356.074 207.074 361.668 206.312 369.469C193.945 373.793 183.934 370.941 177.137 359.488C169.187 346.117 155.719 335.332 140.281 336.664C134.777 337.141 130.703 341.988 131.18 347.488C131.652 352.992 136.516 357.074 142.004 356.594C149.152 355.973 156.203 363.418 159.941 369.703C170.629 387.715 187.941 394.145 206 390.281V415.941C205.996 416.445 205.953 416.934 205.887 417.414C146.688 396.41 106 339.395 106 276C106 193.289 173.289 126 256 126C338.711 126 406 193.289 406 276C406 339.395 365.312 396.41 306.109 417.418V417.418Z" fill="white"/>
<path d="M462 0H50C22.4297 0 0 22.4297 0 50V462C0 489.57 22.4297 512 50 512H462C489.57 512 512 489.57 512 462V50C512 22.4297 489.57 0 462 0ZM492 462C492 478.543 478.543 492 462 492H50C33.457 492 20 478.543 20 462V50C20 33.457 33.457 20 50 20H462C478.543 20 492 33.457 492 50V462Z" fill="white"/>
<path d="M136 63H336C341.523 63 346 58.5234 346 53C346 47.4766 341.523 43 336 43H136C130.477 43 126 47.4766 126 53C126 58.5234 130.477 63 136 63Z" fill="white"/>
</svg>
