<svg width="512" height="512" viewBox="0 0 512 512" fill="none" xmlns="http://www.w3.org/2000/svg">
<path d="M301 256C301 280.852 280.852 301 256 301C231.148 301 211 280.852 211 256C211 231.148 231.148 211 256 211C280.852 211 301 231.148 301 256Z" fill="white"/>
<path d="M332 120H180C146.914 120 120 146.914 120 180V332C120 365.086 146.914 392 180 392H332C365.086 392 392 365.086 392 332V180C392 146.914 365.086 120 332 120ZM256 331C214.645 331 181 297.355 181 256C181 214.645 214.645 181 256 181C297.355 181 331 214.645 331 256C331 297.355 297.355 331 256 331ZM342 185C333.715 185 327 178.285 327 170C327 161.715 333.715 155 342 155C350.285 155 357 161.715 357 170C357 178.285 350.285 185 342 185Z" fill="white"/>
<path d="M377 0H135C60.5625 0 0 60.5625 0 135V377C0 451.438 60.5625 512 135 512H377C451.438 512 512 451.438 512 377V135C512 60.5625 451.438 0 377 0ZM422 332C422 381.625 381.625 422 332 422H180C130.375 422 90 381.625 90 332V180C90 130.375 130.375 90 180 90H332C381.625 90 422 130.375 422 180V332Z" fill="white"/>
</svg>
