<svg width="512" height="512" viewBox="0 0 512 512" fill="none" xmlns="http://www.w3.org/2000/svg">
<g clip-path="url(#clip0)">
<path d="M137.472 316.565L358.016 363.413L367.253 318.848L146.709 271.658L137.472 316.565Z" fill="white"/>
<path d="M132.587 374.848H357.995V420.224H132.587V374.848Z" fill="white"/>
<path d="M166.4 209.728L370.603 306.283L389.525 264.811L185.216 168L166.4 209.728Z" fill="white"/>
<path d="M370.624 306.304L370.603 306.282L370.581 306.304H370.624Z" fill="white"/>
<path d="M42.6667 329.152V512H447.829V329.152H402.752V466.283H87.744V329.152H42.6667Z" fill="white"/>
<path d="M222.997 108.011L395.989 254.635L424.704 219.435L251.712 72.8105L222.997 108.011Z" fill="white"/>
<path d="M469.333 183.189L334.891 0L298.816 27.4347L433.259 210.624L469.333 183.189Z" fill="white"/>
</g>
<defs>
<clipPath id="clip0">
<rect width="512" height="512" fill="white"/>
</clipPath>
</defs>
</svg>
